<?xml version="1.0" standalone="no"?>
<!DOCTYPE svg PUBLIC "-//W3C//DTD SVG 20010904//EN"
 "http://www.w3.org/TR/2001/REC-SVG-20010904/DTD/svg10.dtd">
<svg version="1.0" xmlns="http://www.w3.org/2000/svg"
 width="661.000000pt" height="653.000000pt" viewBox="0 0 661.000000 653.000000"
 preserveAspectRatio="xMidYMid meet">

<g transform="translate(0.000000,653.000000) scale(0.100000,-0.100000)"
fill="#000000" stroke="none">
<path d="M3013 6408 c-21 -5 -69 -12 -108 -17 -38 -5 -108 -15 -155 -21 -47
-7 -101 -13 -120 -15 -19 -2 -60 -11 -90 -20 -30 -9 -68 -18 -83 -19 -15 -2
-33 -8 -39 -14 -7 -7 -24 -12 -38 -12 -14 0 -30 -4 -36 -8 -5 -4 -27 -14 -49
-21 -22 -7 -49 -16 -60 -21 -11 -5 -49 -18 -85 -30 -36 -12 -80 -31 -98 -41
-18 -10 -38 -19 -44 -19 -19 0 -252 -117 -336 -169 -46 -28 -85 -51 -88 -51
-2 0 -27 -16 -54 -35 -27 -19 -52 -35 -56 -35 -3 0 -30 -21 -60 -46 -67 -58
-69 -78 -12 -129 167 -145 263 -265 336 -415 54 -113 84 -211 112 -370 5 -30
14 -80 20 -110 5 -30 14 -82 20 -115 10 -59 16 -95 40 -225 7 -36 16 -90 21
-120 4 -30 13 -81 19 -112 5 -32 15 -84 20 -115 6 -32 15 -83 20 -113 11 -65
25 -144 40 -220 5 -30 13 -75 16 -100 3 -25 9 -54 14 -65 5 -11 11 -45 15 -75
12 -103 47 -309 74 -430 35 -163 120 -309 256 -446 90 -91 200 -157 325 -196
l75 -23 930 0 930 0 85 23 c230 61 393 199 505 427 89 181 115 323 115 627 0
212 5 202 -89 199 -25 -1 -660 -4 -1411 -6 -1001 -3 -1373 -1 -1396 7 -24 8
-33 19 -37 42 -8 48 -86 468 -92 496 l-5 25 1492 0 1493 0 48 24 c71 35 102
86 102 171 0 55 -4 73 -27 107 -14 22 -43 48 -65 59 -37 18 -90 19 -1562 22
-839 2 -1532 7 -1541 12 -11 6 -26 63 -53 209 -42 228 -72 321 -143 446 -51
91 -193 254 -242 277 -15 7 -32 24 -38 36 -6 13 -17 29 -23 35 -6 6 -11 14
-11 18 0 17 246 149 410 220 205 88 480 159 730 189 140 17 542 14 675 -4 350
-48 600 -127 920 -291 331 -169 541 -322 798 -577 98 -98 175 -178 172 -178
-6 0 -2 -5 47 -65 37 -44 195 -279 225 -335 86 -157 161 -326 213 -481 46
-136 97 -343 104 -424 9 -97 13 -137 25 -240 20 -170 12 -471 -18 -680 -6 -38
-13 -89 -16 -113 -3 -24 -10 -55 -16 -68 -5 -14 -9 -37 -9 -51 0 -27 -16 -84
-31 -115 -5 -10 -9 -26 -9 -35 0 -10 -12 -50 -26 -88 -15 -39 -29 -80 -31 -93
-3 -12 -9 -25 -14 -28 -5 -3 -9 -13 -9 -24 0 -10 -10 -38 -21 -62 -12 -23 -25
-52 -29 -63 -14 -37 -54 -120 -71 -145 -9 -14 -35 -61 -58 -105 -53 -99 -140
-232 -175 -264 -14 -14 -26 -28 -26 -33 0 -20 -219 -273 -284 -328 -16 -14
-59 -52 -96 -85 -37 -34 -83 -66 -102 -72 l-36 -10 -6 62 c-12 120 -73 251
-158 342 l-21 23 149 0 c82 0 165 5 185 10 57 16 101 51 128 103 51 100 13
206 -93 258 -39 18 -81 19 -1412 19 -905 0 -1375 3 -1379 10 -3 6 -19 10 -36
10 -16 0 -37 4 -47 9 -9 5 -28 13 -42 19 -76 31 -106 48 -177 100 -175 130
-302 325 -344 527 -24 120 -147 886 -188 1180 -38 263 -81 550 -116 760 -19
116 -41 257 -50 315 -43 284 -79 389 -181 535 -67 96 -191 205 -272 241 -20 8
-45 20 -54 25 -10 5 -26 9 -36 9 -10 0 -22 4 -28 9 -17 17 -99 23 -344 27
l-245 4 -65 -33 c-83 -43 -108 -83 -109 -176 -1 -87 29 -139 101 -175 51 -26
55 -26 274 -26 251 0 288 -7 370 -69 56 -42 127 -138 145 -196 7 -22 16 -44
20 -50 4 -5 9 -28 12 -50 4 -22 11 -67 17 -100 5 -33 15 -89 20 -125 6 -36 15
-92 21 -125 5 -33 14 -91 18 -130 5 -38 14 -104 21 -145 6 -41 16 -102 21
-135 5 -33 12 -85 15 -115 3 -30 9 -64 14 -75 5 -11 11 -42 14 -70 3 -27 10
-79 15 -115 6 -36 15 -96 21 -135 5 -38 15 -97 20 -130 6 -33 15 -91 20 -130
6 -38 14 -97 19 -130 5 -33 15 -94 21 -135 11 -72 19 -127 40 -270 54 -374 69
-432 154 -615 152 -324 477 -596 820 -688 80 -21 95 -21 942 -24 l861 -4 -12
-35 c-6 -19 -27 -51 -47 -72 -66 -70 -89 -144 -95 -309 -3 -86 0 -123 12 -160
36 -106 74 -169 143 -237 l70 -69 -28 -23 c-15 -13 -39 -24 -53 -24 -14 0 -29
-5 -32 -10 -3 -6 -24 -10 -45 -10 -21 0 -42 -4 -45 -10 -3 -5 -19 -10 -35 -10
-16 0 -32 -4 -35 -10 -3 -5 -24 -10 -45 -10 -21 0 -42 -5 -46 -11 -4 -8 -25
-9 -58 -5 -28 3 -134 -1 -236 -10 -210 -19 -413 -15 -610 11 -69 9 -132 19
-140 22 -8 3 -19 5 -23 4 -13 -3 -212 47 -297 74 -349 110 -628 255 -926 480
-73 54 -322 295 -404 390 -65 75 -110 133 -110 143 0 5 -7 15 -15 22 -17 14
-124 170 -158 230 -182 320 -285 584 -352 895 -44 207 -50 278 -50 565 1 357
19 485 111 807 50 176 139 403 164 418 17 11 10 78 -13 125 -23 47 -148 159
-178 160 -22 0 -40 -24 -81 -110 -70 -147 -96 -206 -141 -320 -5 -14 -13 -33
-18 -42 -5 -10 -9 -27 -9 -37 0 -11 -4 -23 -10 -26 -5 -3 -10 -17 -10 -30 0
-13 -4 -27 -10 -30 -5 -3 -10 -19 -10 -35 0 -16 -5 -32 -10 -35 -6 -3 -10 -21
-10 -40 0 -19 -4 -36 -9 -39 -4 -3 -11 -25 -15 -48 -3 -24 -11 -65 -17 -93 -6
-27 -14 -81 -19 -120 -5 -38 -14 -117 -22 -175 -30 -241 -10 -702 42 -960 6
-30 13 -73 17 -95 3 -22 9 -44 14 -50 5 -5 9 -18 9 -29 0 -11 4 -33 10 -50 37
-117 52 -164 60 -181 4 -11 13 -36 20 -55 7 -19 16 -45 21 -57 5 -13 13 -33
18 -45 5 -13 15 -39 22 -58 15 -43 110 -236 147 -299 31 -55 181 -281 220
-332 178 -234 342 -410 527 -563 205 -170 484 -343 735 -455 447 -199 870
-282 1375 -268 386 11 730 80 1091 220 769 297 1412 918 1731 1672 239 564
303 1080 214 1745 -42 311 -160 660 -330 975 -56 105 -145 250 -161 265 -3 3
-18 25 -34 50 -43 67 -176 230 -187 230 -6 0 -8 4 -5 9 8 12 -261 289 -333
343 -31 24 -57 46 -59 50 -6 12 -144 117 -201 153 -9 6 -29 20 -44 33 -16 12
-33 22 -38 22 -5 0 -18 8 -29 18 -25 23 -120 74 -120 65 0 -5 -4 -3 -8 2 -23
31 -316 190 -332 180 -4 -3 -13 2 -20 10 -7 8 -20 15 -30 15 -9 0 -20 3 -23 7
-11 10 -109 43 -129 43 -10 0 -18 4 -18 9 0 10 -54 31 -93 36 -12 2 -42 10
-67 20 -53 19 -150 42 -235 55 -33 5 -87 14 -120 20 -141 24 -244 32 -482 38
-138 4 -268 4 -290 0z m1967 -3137 c9 -28 9 -43 1 -59 -6 -11 -11 -33 -11 -47
0 -45 -60 -157 -114 -212 -28 -29 -55 -53 -61 -53 -6 0 -20 -8 -31 -18 -10
-10 -39 -23 -64 -31 -25 -7 -55 -17 -68 -22 -33 -13 -1669 -12 -1677 1 -3 6
-18 10 -33 10 -33 0 -89 19 -125 43 -14 9 -30 17 -35 17 -18 0 -121 118 -146
168 -35 69 -63 148 -70 200 l-6 42 1213 0 1214 0 13 -39z m-425 -2043 c37 -14
82 -54 101 -90 22 -42 18 -139 -7 -186 -30 -56 -63 -72 -148 -72 -59 0 -78 4
-112 25 -133 85 -110 284 40 329 47 14 72 13 126 -6z"/>
<path d="M1449 1153 c-13 -16 -12 -17 4 -4 16 13 21 21 13 21 -2 0 -10 -8 -17
-17z"/>
</g>
</svg>
